<svg width="135" height="40" viewBox="0 0 135 40" fill="none" xmlns="http://www.w3.org/2000/svg">
<g clip-path="url(#clip0_1904_365)">
<path d="M130 40H5C2.2 40 0 37.8 0 35V5C0 2.2 2.2 0 5 0H130C132.8 0 135 2.2 135 5V35C135 37.8 132.8 40 130 40Z" fill="black"/>
<path d="M130 0.8C132.3 0.8 134.2 2.7 134.2 5V35C134.2 37.3 132.3 39.2 130 39.2H5C2.7 39.2 0.8 37.3 0.8 35V5C0.8 2.7 2.7 0.8 5 0.8H130ZM130 0H5C2.2 0 0 2.3 0 5V35C0 37.8 2.2 40 5 40H130C132.8 40 135 37.8 135 35V5C135 2.3 132.8 0 130 0Z" fill="#A6A6A6"/>
<path d="M68.1 21.8C65.7 21.8 63.8 23.6 63.8 26.1C63.8 28.5 65.7 30.4 68.1 30.4C70.5 30.4 72.4 28.6 72.4 26.1C72.4 23.5 70.5 21.8 68.1 21.8ZM68.1 28.6C66.8 28.6 65.7 27.5 65.7 26C65.7 24.5 66.8 23.4 68.1 23.4C69.4 23.4 70.5 24.4 70.5 26C70.5 27.5 69.4 28.6 68.1 28.6ZM58.8 21.8C56.4 21.8 54.5 23.6 54.5 26.1C54.5 28.5 56.4 30.4 58.8 30.4C61.2 30.4 63.1 28.6 63.1 26.1C63.1 23.5 61.2 21.8 58.8 21.8ZM58.8 28.6C57.5 28.6 56.4 27.5 56.4 26C56.4 24.5 57.5 23.4 58.8 23.4C60.1 23.4 61.2 24.4 61.2 26C61.2 27.5 60.1 28.6 58.8 28.6ZM47.7 23.1V24.9H52C51.9 25.9 51.5 26.7 51 27.2C50.4 27.8 49.4 28.5 47.7 28.5C45 28.5 43 26.4 43 23.7C43 21 45.1 18.9 47.7 18.9C49.1 18.9 50.2 19.5 51 20.2L52.3 18.9C51.2 17.9 49.8 17.1 47.8 17.1C44.2 17.1 41.1 20.1 41.1 23.7C41.1 27.3 44.2 30.3 47.8 30.3C49.8 30.3 51.2 29.7 52.4 28.4C53.6 27.2 54 25.5 54 24.2C54 23.8 54 23.4 53.9 23.1H47.7ZM93.1 24.5C92.7 23.5 91.7 21.8 89.5 21.8C87.3 21.8 85.5 23.5 85.5 26.1C85.5 28.5 87.3 30.4 89.7 30.4C91.6 30.4 92.8 29.2 93.2 28.5L91.8 27.5C91.3 28.2 90.7 28.7 89.7 28.7C88.7 28.7 88.1 28.3 87.6 27.4L93.3 25L93.1 24.5ZM87.3 25.9C87.3 24.3 88.6 23.4 89.5 23.4C90.2 23.4 90.9 23.8 91.1 24.3L87.3 25.9ZM82.6 30H84.5V17.5H82.6V30ZM79.6 22.7C79.1 22.2 78.3 21.7 77.3 21.7C75.2 21.7 73.2 23.6 73.2 26C73.2 28.4 75.1 30.2 77.3 30.2C78.3 30.2 79.1 29.7 79.5 29.2H79.6V29.8C79.6 31.4 78.7 32.3 77.3 32.3C76.2 32.3 75.4 31.5 75.2 30.8L73.6 31.5C74.1 32.6 75.3 34 77.4 34C79.6 34 81.4 32.7 81.4 29.6V22H79.6V22.7ZM77.4 28.6C76.1 28.6 75 27.5 75 26C75 24.5 76.1 23.4 77.4 23.4C78.7 23.4 79.7 24.5 79.7 26C79.7 27.5 78.7 28.6 77.4 28.6ZM101.8 17.5H97.3V30H99.2V25.3H101.8C103.9 25.3 105.9 23.8 105.9 21.4C105.9 19 103.9 17.5 101.8 17.5ZM101.9 23.5H99.2V19.2H101.9C103.3 19.2 104.1 20.4 104.1 21.3C104 22.4 103.2 23.5 101.9 23.5ZM113.4 21.7C112 21.7 110.6 22.3 110.1 23.6L111.8 24.3C112.2 23.6 112.8 23.4 113.5 23.4C114.5 23.4 115.4 24 115.5 25V25.1C115.2 24.9 114.4 24.6 113.6 24.6C111.8 24.6 110 25.6 110 27.4C110 29.1 111.5 30.2 113.1 30.2C114.4 30.2 115 29.6 115.5 29H115.6V30H117.4V25.2C117.2 23 115.5 21.7 113.4 21.7ZM113.2 28.6C112.6 28.6 111.7 28.3 111.7 27.5C111.7 26.5 112.8 26.2 113.7 26.2C114.5 26.2 114.9 26.4 115.4 26.6C115.2 27.8 114.2 28.6 113.2 28.6ZM123.7 22L121.6 27.4H121.5L119.3 22H117.3L120.6 29.6L118.7 33.8H120.6L125.7 22H123.7ZM106.9 30H108.8V17.5H106.9V30Z" fill="white"/>
<path d="M20.7 19.4L10.1 30.7C10.4 31.9 11.5 32.8 12.9 32.8C13.4 32.8 13.9 32.7 14.4 32.4L26.4 25.5L20.7 19.4Z" fill="#EA4335"/>
<path d="M31.5 17.5L26.3 14.5L20.5 19.7L26.3 25.5L31.4 22.5C32.3 22 32.9 21.1 32.9 20C33 18.9 32.4 18 31.5 17.5Z" fill="#FBBC04"/>
<path d="M10.1 9.29999C10 9.49999 10 9.79999 10 9.99999V30C10 30.3 10 30.5 10.1 30.7L21.1 19.7L10.1 9.29999Z" fill="#4285F4"/>
<path d="M20.8 20L26.3 14.5L14.3 7.60001C13.9 7.30001 13.4 7.20001 12.8 7.20001C11.5 7.20001 10.3 8.10001 10 9.30001L20.8 20Z" fill="#34A853"/>
<path d="M42.5065 13.4338H41.7061V7.20458H42.5065V9.87548H45.6211V7.20458H46.4215V13.4338H45.6211V10.6237H42.5065V13.4338ZM51.307 7.20458V7.97018H48.4708V9.94508H51.0286V10.6933H48.4708V12.6682H51.307V13.4338H47.6704V7.20458H51.307ZM53.1861 13.4338H52.3857V7.20458H53.3601L56.3877 12.0505H56.4225L56.3877 10.8499V7.20458H57.1881V13.4338H56.3529L53.1861 8.35298H53.1513L53.1861 9.55358V13.4338ZM60.5662 7.97018V13.4338H59.7658V7.97018H58.0258V7.20458H62.3062V7.97018H60.5662ZM65.8538 13.4338H65.0534V7.20458H65.8538V13.4338Z" fill="white"/>
</g>
<defs>
<clipPath id="clip0_1904_365">
<rect width="135" height="40" fill="white"/>
</clipPath>
</defs>
</svg>
