<svg width="61" height="21" viewBox="0 0 61 21" fill="none" xmlns="http://www.w3.org/2000/svg">
<path d="M10.8151 20.8731C9.17678 20.8731 7.71546 20.6521 6.43648 20.2126C5.15486 19.7731 4.06878 19.1336 3.17297 18.2993C2.27715 17.465 1.63237 16.465 1.23864 15.3017C1.05102 14.778 0.908323 14.2175 0.815835 13.628C0.720704 13.0358 0.675781 12.441 0.675781 11.841C0.675781 11.3357 0.694279 10.8409 0.731274 10.3646C0.768269 9.88561 0.844903 9.42242 0.958531 8.97239C1.07216 8.52237 1.20429 8.08286 1.35491 7.64863C1.93891 6.03537 2.86115 4.6616 4.12427 3.52731C5.38476 2.39303 6.90157 1.52982 8.67206 0.937678C10.4425 0.345535 12.3452 0.0507812 14.3799 0.0507812C16.7714 0.0507812 18.7876 0.398169 20.426 1.09295C22.0644 1.78773 23.309 2.69569 24.1546 3.82208C24.3132 4.02998 24.4558 4.24315 24.5853 4.45895C25.386 5.79588 24.403 7.49072 22.8413 7.48546C22.8201 7.48546 22.8016 7.48546 22.7805 7.48546C22.0142 7.48283 21.3324 7.03807 20.9783 6.36171C20.8329 6.08274 20.64 5.80378 20.3969 5.52482C19.8314 4.87741 19.0413 4.36158 18.0239 3.97735C17.0066 3.59311 15.7646 3.401 14.2953 3.401C12.8261 3.401 11.6105 3.59838 10.424 3.99314C9.23756 4.3879 8.22019 4.96952 7.37194 5.73799C6.52369 6.50646 5.90269 7.44599 5.50631 8.55132C5.39269 8.85134 5.29755 9.17504 5.22356 9.52243C5.14693 9.86982 5.08615 10.2067 5.04123 10.5357C4.99366 10.8646 4.96195 11.2357 4.94346 11.6462C4.94346 12.0594 4.98045 12.4858 5.05709 12.9253C5.13108 13.3674 5.25527 13.7753 5.4244 14.149C5.68865 14.8991 6.11145 15.5412 6.69545 16.0755C7.27945 16.6097 8.01407 17.0176 8.89931 17.2992C9.78456 17.5808 10.8204 17.7203 12.0069 17.7203C13.307 17.7203 14.4988 17.5414 15.5823 17.1861C16.6657 16.8308 17.5589 16.2913 18.2671 15.5675C18.9726 14.8464 19.4483 13.9885 19.694 12.9937H14.0126C13.0428 12.9937 12.3108 12.12 12.4826 11.1699C12.6173 10.433 13.2595 9.89877 14.0126 9.89877H23.346C24.3237 9.89877 25.061 10.7883 24.8707 11.7463L23.4226 19.0625C23.2799 19.7889 22.6404 20.31 21.8979 20.31H20.8039C19.7046 20.31 18.9515 19.2046 19.3611 18.1888L20.3732 15.6676H19.9503C19.3848 16.8308 18.674 17.7914 17.8178 18.552C16.9617 19.3125 15.9707 19.8889 14.8503 20.2836C13.7298 20.6784 12.3874 20.8758 10.8231 20.8758L10.8151 20.8731Z" fill="currentColor"/>
<path d="M38.3876 20.8758C36.4424 20.8758 34.7171 20.631 33.2171 20.1441C31.7145 19.6571 30.445 18.957 29.4061 18.0463C28.3673 17.1356 27.6305 16.017 27.1959 14.6825C26.9494 14.1771 26.7904 13.6613 26.7136 13.1348C26.6367 12.6111 26.5996 12.0557 26.5996 11.474C26.5996 11.0608 26.6182 10.6291 26.6553 10.179C26.6924 9.72893 26.7692 9.30253 26.8832 8.89982C26.9971 8.49712 27.1376 8.06019 27.3072 7.59168C27.816 5.92294 28.7091 4.53847 29.9839 3.4409C31.2586 2.34332 32.7613 1.50369 34.4892 0.921998C36.2171 0.340309 38.1305 0.0507812 40.2268 0.0507812C42.1349 0.0507812 43.8576 0.28504 45.3973 0.75355C46.9371 1.22206 48.2224 1.91693 49.2507 2.83552C50.2789 3.75412 51.013 4.88064 51.4477 6.21248C51.6756 6.71783 51.8399 7.23636 51.9433 7.76014C52.0466 8.28655 52.0996 8.84718 52.0996 9.44993C52.0996 9.88159 52.0678 10.3133 52.0016 10.7449C51.9353 11.1766 51.8505 11.6082 51.7471 12.0399C51.6438 12.4716 51.506 12.8927 51.3364 13.3059C50.8063 14.9562 49.9159 16.346 48.6597 17.4699C47.4035 18.5964 45.8929 19.4439 44.1252 20.0177C42.3576 20.5889 40.4468 20.8758 38.3876 20.8758ZM38.5864 17.5278C39.9088 17.5278 41.1544 17.3356 42.3258 16.9513C43.4971 16.5671 44.5016 15.9985 45.3443 15.2484C46.1844 14.4983 46.8046 13.5612 47.1994 12.4347C47.2948 12.1347 47.3849 11.8399 47.4698 11.5477C47.5546 11.2582 47.6208 10.9476 47.6685 10.6186C47.7162 10.2896 47.7401 9.95792 47.7401 9.61839C47.7401 9.22357 47.6924 8.82086 47.5996 8.40763C47.5042 7.99439 47.3929 7.62854 47.2604 7.31006C46.9768 6.46516 46.4998 5.75713 45.8293 5.18597C45.1588 4.61481 44.3425 4.17262 43.3779 3.86203C42.4159 3.55145 41.3001 3.39878 40.0334 3.39878C38.6738 3.39878 37.4123 3.59619 36.2516 3.991C35.0908 4.38581 34.089 4.95697 33.2489 5.70711C32.4088 6.45726 31.7887 7.39691 31.3938 8.52081C31.3381 8.80244 31.2666 9.08934 31.1818 9.37887C31.097 9.67103 31.0307 9.97898 30.983 10.308C30.9353 10.637 30.9114 10.9607 30.9114 11.2792C30.9114 11.6556 30.9539 12.0531 31.0387 12.4742C31.1235 12.8953 31.2242 13.2664 31.3355 13.5849C31.6376 14.4114 32.1146 15.1326 32.7666 15.7511C33.4185 16.3697 34.2401 16.8197 35.2312 17.1014C36.2224 17.383 37.3434 17.5225 38.589 17.5225L38.5864 17.5278Z" fill="currentColor"/>
<path d="M53.4041 11.6127L54.9645 2.23802C55.1326 1.22087 56.0047 0.474609 57.0266 0.474609H58.0826C59.488 0.474609 60.4941 1.85028 60.0817 3.20736L57.4653 12.5821C57.1947 13.4691 56.3856 14.0746 55.4662 14.0746C54.1737 14.0746 53.1913 12.9008 53.4041 11.6101V11.6127Z" fill="currentColor"/>
<path d="M54.0133 20.8742C55.3042 20.8742 56.3508 19.8277 56.3508 18.5367C56.3508 17.2457 55.3042 16.1992 54.0133 16.1992C52.7223 16.1992 51.6758 17.2457 51.6758 18.5367C51.6758 19.8277 52.7223 20.8742 54.0133 20.8742Z" fill="currentColor"/>
</svg>
